<svg width="12" height="12" viewBox="0 0 12 12" fill="none" xmlns="http://www.w3.org/2000/svg">
<path d="M4.13147 8.06584C4.13147 9.50757 4.13147 10.2289 4.61253 10.6766C4.96335 11.0038 5.47068 11.092 6.32063 11.116M4.13147 3.98741C4.13147 2.54569 4.13147 1.82431 4.61253 1.37671C5.09305 0.928589 5.86747 0.928589 7.4152 0.928589H7.96249C9.51023 0.928589 10.2846 0.928589 10.7652 1.37671C11.2462 1.82431 11.2462 2.54569 11.2462 3.98741V8.06584C11.2462 9.50757 11.2462 10.2289 10.7652 10.6766C10.3448 11.0686 9.70014 11.1175 8.50978 11.1236M1.39502 4.75212V7.30114C1.39502 8.50275 1.39502 9.1033 1.79564 9.47698C2.19625 9.85016 2.84151 9.85016 4.13147 9.85016M1.79564 2.57628C2.19625 2.2031 2.84151 2.2031 4.13147 2.2031" stroke="#292828" stroke-width="0.983193" stroke-linecap="round"/>
<path d="M3.03687 6.02671H7.96247M7.96247 6.02671L6.59425 7.30122M7.96247 6.02671L6.59425 4.7522" stroke="#292828" stroke-width="0.983193" stroke-linecap="round" stroke-linejoin="round"/>
</svg>
