<svg width="46" height="46" viewBox="0 0 46 46" fill="none" xmlns="http://www.w3.org/2000/svg">
<path d="M33.6567 3.8335H12.2859C7.62837 3.8335 3.83337 7.6285 3.83337 12.286V24.7443V25.1277C3.83337 29.8043 7.62837 33.5802 12.2859 33.5802H19.6459C20.7 33.5802 21.5625 34.4427 21.5625 35.4968V37.356C21.5625 38.4102 20.7 39.2727 19.6459 39.2727H15.0075C14.2217 39.2727 13.57 39.9243 13.57 40.7102C13.57 41.496 14.2025 42.1668 15.0075 42.1668H31.0117C31.7975 42.1668 32.4492 41.5152 32.4492 40.7293C32.4492 39.9435 31.7975 39.2918 31.0117 39.2918H26.3734C25.3192 39.2918 24.4567 38.4293 24.4567 37.3752V35.516C24.4567 34.4618 25.3192 33.5993 26.3734 33.5993H33.6759C38.3525 33.5993 42.1284 29.8043 42.1284 25.1468V24.7635V12.3052C42.1092 7.6285 38.3142 3.8335 33.6567 3.8335Z" fill="#3366FF"/>
</svg>
