<svg width="229" height="48" viewBox="0 0 229 48" fill="none" xmlns="http://www.w3.org/2000/svg">
<path d="M39.85 5.9V41H31.3V19.95L23.45 41H16.55L8.65 19.9V41H0.1V5.9H10.2L20.05 30.2L29.8 5.9H39.85ZM72.2984 26.6C72.2984 27.4 72.2484 28.2333 72.1484 29.1H52.7984C52.9318 30.8333 53.4818 32.1667 54.4484 33.1C55.4484 34 56.6651 34.45 58.0984 34.45C60.2318 34.45 61.7151 33.55 62.5484 31.75H71.6484C71.1818 33.5833 70.3318 35.2333 69.0984 36.7C67.8984 38.1667 66.3818 39.3167 64.5484 40.15C62.7151 40.9833 60.6651 41.4 58.3984 41.4C55.6651 41.4 53.2318 40.8167 51.0984 39.65C48.9651 38.4833 47.2984 36.8167 46.0984 34.65C44.8984 32.4833 44.2984 29.95 44.2984 27.05C44.2984 24.15 44.8818 21.6167 46.0484 19.45C47.2484 17.2833 48.9151 15.6167 51.0484 14.45C53.1818 13.2833 55.6318 12.7 58.3984 12.7C61.0984 12.7 63.4984 13.2667 65.5984 14.4C67.6984 15.5333 69.3318 17.15 70.4984 19.25C71.6984 21.35 72.2984 23.8 72.2984 26.6ZM63.5484 24.35C63.5484 22.8833 63.0484 21.7167 62.0484 20.85C61.0484 19.9833 59.7984 19.55 58.2984 19.55C56.8651 19.55 55.6484 19.9667 54.6484 20.8C53.6818 21.6333 53.0818 22.8167 52.8484 24.35H63.5484ZM75.109 27C75.109 24.1333 75.6423 21.6167 76.709 19.45C77.809 17.2833 79.2923 15.6167 81.159 14.45C83.0257 13.2833 85.109 12.7 87.409 12.7C89.2423 12.7 90.909 13.0833 92.409 13.85C93.9423 14.6167 95.1423 15.65 96.009 16.95V4H104.559V41H96.009V37C95.209 38.3333 94.059 39.4 92.559 40.2C91.0923 41 89.3757 41.4 87.409 41.4C85.109 41.4 83.0257 40.8167 81.159 39.65C79.2923 38.45 77.809 36.7667 76.709 34.6C75.6423 32.4 75.109 29.8667 75.109 27ZM96.009 27.05C96.009 24.9167 95.409 23.2333 94.209 22C93.0423 20.7667 91.609 20.15 89.909 20.15C88.209 20.15 86.759 20.7667 85.559 22C84.3923 23.2 83.809 24.8667 83.809 27C83.809 29.1333 84.3923 30.8333 85.559 32.1C86.759 33.3333 88.209 33.95 89.909 33.95C91.609 33.95 93.0423 33.3333 94.209 32.1C95.409 30.8667 96.009 29.1833 96.009 27.05ZM115.045 10.2C113.545 10.2 112.311 9.76666 111.345 8.9C110.411 8 109.945 6.9 109.945 5.6C109.945 4.26667 110.411 3.16666 111.345 2.3C112.311 1.4 113.545 0.949997 115.045 0.949997C116.511 0.949997 117.711 1.4 118.645 2.3C119.611 3.16666 120.095 4.26667 120.095 5.6C120.095 6.9 119.611 8 118.645 8.9C117.711 9.76666 116.511 10.2 115.045 10.2ZM119.295 13.1V41H110.745V13.1H119.295ZM153.041 47.3L146.941 40.7C145.441 41.1333 143.791 41.35 141.991 41.35C138.757 41.35 135.774 40.6 133.041 39.1C130.341 37.5667 128.191 35.45 126.591 32.75C125.024 30.0167 124.241 26.95 124.241 23.55C124.241 20.15 125.024 17.1 126.591 14.4C128.191 11.7 130.341 9.6 133.041 8.1C135.774 6.56666 138.757 5.8 141.991 5.8C145.257 5.8 148.241 6.56666 150.941 8.1C153.674 9.6 155.824 11.7 157.391 14.4C158.957 17.1 159.741 20.15 159.741 23.55C159.741 26.75 159.041 29.65 157.641 32.25C156.274 34.8167 154.374 36.8833 151.941 38.45L160.291 47.3H153.041ZM130.091 23.55C130.091 26.1167 130.591 28.3833 131.591 30.35C132.624 32.2833 134.041 33.7833 135.841 34.85C137.641 35.8833 139.691 36.4 141.991 36.4C144.291 36.4 146.341 35.8833 148.141 34.85C149.941 33.7833 151.341 32.2833 152.341 30.35C153.374 28.3833 153.891 26.1167 153.891 23.55C153.891 20.9833 153.374 18.7333 152.341 16.8C151.341 14.8667 149.941 13.3833 148.141 12.35C146.341 11.3167 144.291 10.8 141.991 10.8C139.691 10.8 137.641 11.3167 135.841 12.35C134.041 13.3833 132.624 14.8667 131.591 16.8C130.591 18.7333 130.091 20.9833 130.091 23.55ZM190.446 13.45V41H184.746V37.75C183.846 38.8833 182.663 39.7833 181.196 40.45C179.763 41.0833 178.229 41.4 176.596 41.4C174.429 41.4 172.479 40.95 170.746 40.05C169.046 39.15 167.696 37.8167 166.696 36.05C165.729 34.2833 165.246 32.15 165.246 29.65V13.45H170.896V28.8C170.896 31.2667 171.513 33.1667 172.746 34.5C173.979 35.8 175.663 36.45 177.796 36.45C179.929 36.45 181.613 35.8 182.846 34.5C184.113 33.1667 184.746 31.2667 184.746 28.8V13.45H190.446ZM200.867 9.8C199.833 9.8 198.967 9.45 198.267 8.75C197.567 8.05 197.217 7.18333 197.217 6.15C197.217 5.11666 197.567 4.25 198.267 3.55C198.967 2.85 199.833 2.5 200.867 2.5C201.867 2.5 202.717 2.85 203.417 3.55C204.117 4.25 204.467 5.11666 204.467 6.15C204.467 7.18333 204.117 8.05 203.417 8.75C202.717 9.45 201.867 9.8 200.867 9.8ZM203.667 13.45V41H197.967V13.45H203.667ZM216.2 36.35H228.7V41H209.6V36.35L222.15 18.1H209.6V13.45H228.7V18.1L216.2 36.35Z" fill="#292828"/>
</svg>
